<svg xmlns="http://www.w3.org/2000/svg" width="54.500" height="8" viewBox="0 0 54.500 8" fill="none">
  <path d="M 8.475 8 L 8.475 7.754 C 8.947 7.709 9.141 7.529 9.476 6.688 L 12.109 0.007 L 12.915 0.007 L 15.827 7.169 C 16.033 7.662 16.127 7.719 16.505 7.754 L 16.505 8 L 12.364 8 L 12.364 7.754 L 12.884 7.754 C 12.943 7.761 13.003 7.756 13.059 7.738 C 13.116 7.72 13.168 7.691 13.212 7.652 C 13.257 7.612 13.292 7.564 13.317 7.51 C 13.341 7.456 13.354 7.398 13.354 7.339 C 13.342 7.153 13.3 6.97 13.227 6.798 L 12.688 5.462 L 10.51 5.462 L 10.097 6.618 C 10.008 6.817 9.957 7.03 9.948 7.247 C 9.948 7.541 10.144 7.754 10.846 7.754 L 10.846 8 L 8.475 8 Z M 11.597 2.656 L 10.676 5.014 L 12.506 5.014 L 11.597 2.656 Z M 3.24 4.139 L 3.24 6.698 C 3.24 7.474 3.533 7.737 4.155 7.754 L 4.155 8 L 0 8 L 0 7.754 C 0.716 7.754 0.995 7.562 0.995 6.698 L 0.995 1.309 C 0.995 0.443 0.704 0.254 0 0.254 L 0 0.007 L 4.162 0.007 L 4.162 0.253 C 3.54 0.275 3.246 0.531 3.246 1.307 L 3.246 3.599 L 5.589 3.599 L 5.589 1.309 C 5.589 0.535 5.298 0.27 4.675 0.255 L 4.675 0.007 L 8.838 0.007 L 8.838 0.253 C 8.121 0.253 7.84 0.443 7.84 1.307 L 7.84 6.696 C 7.84 7.562 8.121 7.751 8.838 7.751 L 8.838 8 L 4.682 8 L 4.682 7.754 C 5.305 7.732 5.596 7.474 5.596 6.698 L 5.596 4.139 L 3.24 4.139 Z M 28.895 8 L 26.987 4.364 L 26.757 4.364 L 26.757 6.698 C 26.757 7.564 27.039 7.754 27.764 7.754 L 27.764 8 L 23.487 8 L 23.487 7.754 C 24.212 7.754 24.495 7.562 24.495 6.698 L 24.495 1.309 C 24.495 0.443 24.212 0.255 23.487 0.255 L 23.487 0.007 L 27.748 0.007 C 29.701 0.007 30.669 0.748 30.669 2.195 C 30.669 3.286 30.102 3.835 29.211 4.216 L 30.743 7.056 C 30.995 7.515 31.153 7.73 31.657 7.749 L 31.657 7.995 L 28.895 8 Z M 26.765 3.868 C 27.941 3.868 28.467 3.622 28.467 2.263 C 28.467 0.859 28.026 0.499 26.765 0.499 L 26.765 3.868 Z M 31.594 8 L 31.594 7.754 C 32.357 7.754 32.655 7.562 32.655 6.698 L 32.655 1.309 C 32.655 0.443 32.357 0.254 31.594 0.254 L 31.594 0.007 L 38.451 0.007 L 38.451 2.207 L 38.208 2.207 C 38.085 0.995 37.544 0.499 36.283 0.499 L 35.045 0.499 L 35.045 3.687 C 36.172 3.687 36.432 3.307 36.592 1.982 L 36.835 1.982 L 36.835 5.865 L 36.593 5.865 C 36.439 4.541 36.174 4.16 35.047 4.183 L 35.047 6.923 C 35.047 7.349 35.135 7.506 35.6 7.506 L 36.574 7.506 C 37.305 7.506 38.234 7.349 38.676 5.644 L 38.952 5.644 L 38.552 8 L 31.594 8 Z M 40.702 8 L 40.702 7.754 C 41.481 7.754 41.784 7.562 41.784 6.698 L 41.784 0.502 C 39.979 0.502 39.753 0.795 39.596 2.074 L 39.346 2.074 L 39.346 0.007 L 46.652 0.007 L 46.652 2.07 L 46.409 2.07 C 46.252 0.793 46.026 0.499 44.221 0.499 L 44.221 6.696 C 44.221 7.562 44.524 7.751 45.303 7.751 L 45.303 8 L 40.702 8 Z M 46.991 8 L 51.479 0.499 L 49.947 0.499 C 48.763 0.499 48.192 0.803 47.806 2.251 L 47.554 2.251 L 47.707 0 L 54.374 0 L 49.875 7.506 L 51.711 7.506 C 52.485 7.506 53.751 7.283 54.25 5.306 L 54.5 5.306 L 54.182 8 L 46.991 8 Z M 15.805 8 L 15.805 7.754 C 16.277 7.709 16.473 7.529 16.806 6.688 L 19.44 0.007 L 20.245 0.007 L 23.157 7.169 C 23.363 7.662 23.457 7.72 23.835 7.754 L 23.835 8 L 19.694 8 L 19.694 7.754 L 20.214 7.754 C 20.273 7.761 20.333 7.756 20.39 7.739 C 20.447 7.721 20.499 7.692 20.544 7.653 C 20.588 7.613 20.624 7.565 20.649 7.511 C 20.673 7.457 20.686 7.398 20.686 7.339 C 20.673 7.153 20.631 6.97 20.559 6.799 L 20.018 5.462 L 17.841 5.462 L 17.427 6.618 C 17.338 6.817 17.287 7.03 17.278 7.247 C 17.278 7.541 17.474 7.754 18.176 7.754 L 18.176 8 L 15.805 8 Z M 18.927 2.656 L 18.006 5.014 L 19.838 5.014 L 18.927 2.656 Z" fill="currentColor" fill-rule="nonzero"></path>
</svg>