<svg xmlns="http://www.w3.org/2000/svg" id="Warstwa_2" viewBox="0 0 852.84 94.54"><defs><style>      .cls-1 {        fill: #fff;      }    </style></defs><g id="Warstwa_1-2" data-name="Warstwa_1"><g><g><rect class="cls-1" y="4.46" width="43.09" height="43.09"></rect><rect class="cls-1" x="43.09" y="47.55" width="43.09" height="43.09"></rect></g><g><path class="cls-1" d="M177.69,41.97c-4.21-4.84-11.54-10.45-22-10.45-15.6,0-26.52,12.01-26.52,27.61,0,18.25,13.88,27.3,26.21,27.3,10.14,0,18.1-5.93,23.09-11.39v8.42c-4.21,3.74-12.01,8.89-23.24,8.89-19.19,0-32.61-14.2-32.61-33.07s12.64-33.7,33.07-33.7c4.52,0,13.26.78,22,8.11v8.27Z"></path><path class="cls-1" d="M195.63,26.99h6.24v8.27c2.34-5.46,7.18-9.67,14.04-9.67,1.72,0,4.37.31,6.71,1.56l-3.12,5.62c-.62-.47-1.87-1.25-4.68-1.25-12.79,0-12.95,17-12.95,24.96v34.17h-6.24V26.99Z"></path><path class="cls-1" d="M238.68,59.59c0,16.22,11.86,26.83,25.27,26.83,10.3,0,18.1-6.08,22.15-14.51l5.3,3.12c-3.74,7.18-12.17,17.32-27.92,17.32-19.81,0-31.36-14.66-31.36-33.23,0-22.15,15.29-33.54,30.89-33.54,17.16,0,30.11,13.73,30.11,34.01h-54.45ZM286.58,53.67c-1.56-12.64-10.92-22.15-23.56-22.15s-22.15,9.83-23.87,22.15h47.43Z"></path><path class="cls-1" d="M363.33,26.99h6.24v63.65h-6.24v-11.39c-6.4,9.83-16.54,13.1-24.8,13.1-16.69,0-31.05-12.64-31.05-33.54,0-19.66,12.48-33.23,31.05-33.23,9.98,0,18.72,3.9,24.8,12.48v-11.08ZM314.03,58.35c0,14.35,8.89,28.08,24.96,28.08s24.65-13.42,24.65-28.08c0-18.88-13.88-26.83-24.8-26.83-12.64,0-24.8,9.52-24.8,26.83Z"></path><path class="cls-1" d="M398.74,32.92v57.72h-6.24v-57.72h-7.02v-5.93h7.02V4.21h6.24v22.78h11.08v5.93h-11.08Z"></path><path class="cls-1" d="M419.79,5.77c0-3.43,2.5-5.77,5.62-5.77s5.62,2.34,5.62,5.77-2.5,5.77-5.62,5.77-5.62-2.34-5.62-5.77ZM428.53,26.99v63.65h-6.24V26.99h6.24Z"></path><path class="cls-1" d="M447.87,26.99l22.46,52.89,22.15-52.89h6.86l-29.02,67.55-29.33-67.55h6.86Z"></path><path class="cls-1" d="M514.33,59.59c0,16.22,11.86,26.83,25.27,26.83,10.3,0,18.1-6.08,22.15-14.51l5.3,3.12c-3.74,7.18-12.17,17.32-27.93,17.32-19.81,0-31.36-14.66-31.36-33.23,0-22.15,15.29-33.54,30.89-33.54,17.16,0,30.11,13.73,30.11,34.01h-54.45ZM562.22,53.67c-1.56-12.64-10.92-22.15-23.56-22.15s-22.15,9.83-23.87,22.15h47.43Z"></path><path class="cls-1" d="M634.44,36.19v54.45h-11.23v-54.45h-6.86v-10.3h6.86V2.5h11.23v23.4h11.23v10.3h-11.23Z"></path><path class="cls-1" d="M656.28,25.9h11.23v7.02c1.09-1.72,5.93-8.58,14.67-8.58,3.43,0,7.18,1.25,9.98,2.65l-5.3,10.14c-2.5-1.72-4.84-2.18-6.55-2.18-4.52,0-7.33,1.87-9.05,4.06-1.87,2.5-3.74,6.86-3.74,17.47v34.17h-11.23V25.9Z"></path><path class="cls-1" d="M713.69,63.65c0,4.52,0,9.83,3.12,13.88,1.72,2.18,5.15,4.99,11.39,4.99s9.67-2.81,11.39-4.99c3.12-4.06,3.12-9.36,3.12-13.88V25.9h11.23v39c0,7.96-.78,13.88-5.93,19.5-5.77,6.08-13.42,8.11-19.81,8.11s-14.04-2.03-19.81-8.11c-5.15-5.62-5.93-11.54-5.93-19.5V25.9h11.23v37.75Z"></path><path class="cls-1" d="M801.83,40.87c-1.56-3.74-4.84-6.55-9.05-6.55s-7.8,2.34-7.8,7.33c0,4.68,3.12,6.08,10.45,9.21,9.36,3.9,13.73,6.86,16.22,9.98,2.81,3.43,3.43,6.86,3.43,10.45,0,13.57-9.83,21.22-22.31,21.22-2.65,0-17.16-.31-22.62-16.54l9.67-4.06c1.25,3.43,4.99,10.61,13.11,10.61,7.33,0,10.61-5.46,10.61-10.3,0-6.08-4.37-8.11-10.45-10.76-7.8-3.43-12.79-5.93-15.76-9.52-2.5-3.12-2.96-6.24-2.96-9.52,0-11.39,7.96-18.1,18.88-18.1,3.43,0,12.64.62,17.78,11.7l-9.2,4.84Z"></path><path class="cls-1" d="M841.61,36.19v54.45h-11.23v-54.45h-6.87v-10.3h6.87V2.5h11.23v23.4h11.23v10.3h-11.23Z"></path></g></g></g></svg>