<?xml version="1.0" encoding="UTF-8"?>
<svg id="Warstwa_2" data-name="Warstwa 2" xmlns="http://www.w3.org/2000/svg" viewBox="0 0 297.85 96.68">
  <defs>
    <style>
      .cls-1 {
        fill: #f78f9e;
        fill-rule: evenodd;
      }

      .cls-2 {
        fill: #2b2a29;
      }
    </style>
  </defs>
  <g id="Warstwa_1-2" data-name="Warstwa 1">
    <g id="Warstwa_1-3" data-name="Warstwa_1">
      <g id="_2102274444496" data-name=" 2102274444496">
        <path class="cls-2" d="M144.46,22.3v.74c-.76.1-1.5.34-2.21.74-.71.39-1.42,1.04-2.13,1.95l-7.1,9.09.81-1.8,8.83,12.36c.42.61.87,1.09,1.36,1.43.49.34,1.12.61,1.88.81v.74c-.59-.05-1.32-.08-2.19-.09-.87-.01-1.61-.02-2.23-.02-.42,0-.93,0-1.53.02-.6.01-1.35.04-2.26.09v-.74c.83-.05,1.36-.2,1.58-.44.22-.25.13-.65-.26-1.21l-5.37-8.09c-.49-.76-.93-1.33-1.31-1.71-.38-.38-.77-.63-1.18-.75-.4-.12-.91-.2-1.53-.22v-.74c1.03-.02,1.89-.23,2.59-.61.7-.38,1.28-.86,1.75-1.45l3.53-4.49c.81-1.03,1.36-1.9,1.66-2.61.29-.71.28-1.26-.04-1.64s-.99-.58-2.02-.61v-.74c.71.02,1.43.05,2.17.07.74.02,1.42.04,2.06.04,1.35,0,2.39-.04,3.13-.11h0ZM132.76,22.3v.74c-.83.02-1.46.12-1.89.28-.43.16-.72.45-.86.88-.15.43-.22,1.1-.22,2v18.24c0,.88.07,1.55.22,1.99.15.44.44.74.86.88.43.15,1.06.25,1.89.29v.74c-.56-.05-1.27-.08-2.11-.09-.85-.01-1.7-.02-2.56-.02-.96,0-1.85,0-2.69.02-.83.01-1.51.04-2.02.09v-.74c.83-.05,1.47-.15,1.89-.29.43-.15.72-.44.86-.88.15-.44.22-1.1.22-1.99v-18.24c0-.91-.07-1.58-.22-2-.15-.43-.44-.72-.86-.88-.43-.16-1.06-.25-1.89-.28v-.74c.52.02,1.19.05,2.02.07.83.02,1.73.04,2.69.04.86,0,1.71-.01,2.56-.04s1.55-.05,2.11-.07ZM151.93,48.6c-1.59,0-2.75-.4-3.48-1.2-.72-.8-1.09-1.86-1.09-3.18,0-1.03.25-1.88.75-2.56.5-.67,1.15-1.23,1.93-1.66.78-.43,1.61-.8,2.48-1.1.87-.31,1.7-.61,2.48-.9.78-.29,1.43-.63,1.93-.99.5-.37.75-.83.75-1.4v-2.28c0-1.03-.15-1.81-.46-2.35-.31-.54-.72-.9-1.23-1.09-.52-.18-1.09-.28-1.73-.28s-1.27.09-1.97.26c-.7.17-1.26.53-1.67,1.07.47.1.87.34,1.21.74.34.39.52.89.52,1.51s-.2,1.1-.59,1.45c-.39.36-.89.53-1.51.53-.71,0-1.23-.23-1.56-.68-.33-.45-.5-.96-.5-1.53,0-.64.16-1.15.48-1.54.32-.39.72-.76,1.21-1.1.56-.39,1.29-.73,2.19-1.01.89-.28,1.91-.42,3.03-.42,1.01,0,1.86.12,2.57.35.71.23,1.3.57,1.77,1.01.64.59,1.05,1.31,1.25,2.15.2.85.29,1.86.29,3.03v10.23c0,.59.09,1.02.26,1.31.17.28.47.42.88.42.34,0,.64-.07.9-.22.26-.15.51-.33.75-.55l.4.63c-.52.39-1.01.72-1.47.98-.47.26-1.09.39-1.88.39-1.28,0-2.12-.33-2.54-.99-.42-.66-.63-1.42-.63-2.28-.78,1.3-1.67,2.17-2.67,2.61-.99.44-2.03.66-3.11.66h0ZM153.55,47.13c.74,0,1.46-.21,2.17-.64.71-.43,1.37-1.15,1.99-2.15v-7.21c-.37.54-.94.97-1.71,1.29s-1.57.67-2.39,1.05c-.82.38-1.53.9-2.11,1.55-.59.65-.88,1.58-.88,2.78,0,1.13.28,1.97.85,2.52.56.55,1.26.83,2.1.83h0ZM171.24,23.3v6.14h5.44v.74h-5.44v14.24c0,1.15.21,1.96.63,2.43.42.47.99.7,1.73.7s1.37-.3,1.91-.9c.54-.6,1.01-1.61,1.4-3.03l.74.18c-.24,1.42-.73,2.62-1.45,3.6-.72.98-1.83,1.47-3.33,1.47-.83,0-1.52-.1-2.06-.31-.54-.21-1.02-.51-1.43-.9-.54-.56-.91-1.24-1.12-2.02s-.31-1.83-.31-3.13v-12.32h-3.53v-.74h3.53v-5.63c.61-.02,1.2-.07,1.77-.15.56-.07,1.08-.2,1.54-.37h0ZM183.27,48.6c-1.59,0-2.75-.4-3.48-1.2-.72-.8-1.09-1.86-1.09-3.18,0-1.03.25-1.88.75-2.56.5-.67,1.15-1.23,1.93-1.66.78-.43,1.61-.8,2.48-1.1.87-.31,1.7-.61,2.48-.9.78-.29,1.43-.63,1.93-.99.5-.37.75-.83.75-1.4v-2.28c0-1.03-.15-1.81-.46-2.35-.31-.54-.72-.9-1.23-1.09-.52-.18-1.09-.28-1.73-.28s-1.27.09-1.97.26c-.7.17-1.26.53-1.67,1.07.47.1.87.34,1.21.74.34.39.52.89.52,1.51s-.2,1.1-.59,1.45c-.39.36-.89.53-1.51.53-.71,0-1.23-.23-1.56-.68-.33-.45-.5-.96-.5-1.53,0-.64.16-1.15.48-1.54.32-.39.72-.76,1.21-1.1.56-.39,1.29-.73,2.19-1.01.89-.28,1.91-.42,3.03-.42,1.01,0,1.86.12,2.57.35.71.23,1.3.57,1.77,1.01.64.59,1.05,1.31,1.25,2.15.2.85.29,1.86.29,3.03v10.23c0,.59.09,1.02.26,1.31.17.28.47.42.88.42.34,0,.64-.07.9-.22.26-.15.51-.33.75-.55l.4.63c-.52.39-1.01.72-1.47.98-.47.26-1.09.39-1.88.39-1.28,0-2.12-.33-2.54-.99-.42-.66-.63-1.42-.63-2.28-.78,1.3-1.67,2.17-2.67,2.61-.99.44-2.03.66-3.11.66h0ZM184.89,47.13c.74,0,1.46-.21,2.17-.64.71-.43,1.37-1.15,1.99-2.15v-7.21c-.37.54-.94.97-1.71,1.29s-1.57.67-2.39,1.05c-.82.38-1.53.9-2.11,1.55-.59.65-.88,1.58-.88,2.78,0,1.13.28,1.97.85,2.52.56.55,1.26.83,2.1.83ZM208.1,28.89c.66,0,1.24.13,1.75.4.5.27.89.62,1.18,1.05.28.43.42.91.42,1.45,0,.61-.19,1.15-.57,1.62-.38.47-.89.7-1.53.7-.52,0-.97-.17-1.36-.5s-.59-.8-.59-1.42c0-.47.13-.86.39-1.2.26-.33.55-.59.86-.79-.17-.25-.43-.37-.77-.37-1.03,0-1.93.39-2.69,1.16s-1.35,1.7-1.78,2.78c-.43,1.08-.64,2.07-.64,2.98v7.8c0,1.2.35,2,1.05,2.41s1.65.61,2.85.61v.77c-.56-.02-1.36-.05-2.39-.09-1.03-.04-2.12-.06-3.27-.06-.83,0-1.66.02-2.48.06-.82.04-1.44.07-1.86.09v-.77c1.01,0,1.72-.18,2.15-.55.43-.37.64-1.07.64-2.1v-11.51c0-1.1-.2-1.92-.59-2.45-.39-.53-1.13-.79-2.21-.79v-.77c.78.07,1.54.11,2.28.11s1.39-.04,2.04-.13c.65-.09,1.24-.21,1.78-.39v4.6c.27-.71.66-1.43,1.16-2.15.5-.72,1.11-1.33,1.82-1.82.71-.49,1.5-.74,2.35-.74h0ZM228.11,29.22l-10.63,18.58h4.05c.98,0,1.83-.2,2.56-.59.72-.39,1.31-1.02,1.75-1.89.44-.87.71-2.02.81-3.44h.85c0,1.57.01,2.89.04,3.97.02,1.08.06,1.96.11,2.65-1.08-.05-2.2-.09-3.37-.11-1.17-.02-2.32-.04-3.48-.04-1.23,0-2.48.02-3.75.05-1.28.04-2.5.08-3.68.13l10.63-18.58h-4.05c-1.08,0-1.98.2-2.7.59-.72.39-1.28,1.02-1.66,1.89-.38.87-.63,2.02-.75,3.44h-.85c0-1.59-.01-2.92-.04-3.99-.02-1.07-.06-1.94-.11-2.63,1.08.05,2.2.09,3.37.11,1.16.02,2.32.04,3.48.04,1.23,0,2.48-.02,3.75-.05,1.28-.04,2.5-.08,3.68-.13h0ZM247.64,29.4v.74c-.47.05-.9.26-1.29.63-.39.37-.76,1.02-1.1,1.95l-6.03,15.82h-.63l-6.77-16.29c-.47-.96-.93-1.54-1.38-1.75-.45-.21-.83-.31-1.12-.31v-.77c.54.07,1.1.13,1.69.17.59.04,1.23.06,1.91.06.76,0,1.56-.02,2.41-.07.85-.05,1.64-.1,2.37-.15v.77c-.61,0-1.16.04-1.64.13-.48.09-.78.34-.9.77-.12.43.02,1.16.44,2.19l4.52,11.22-.22.07,4.19-10.96c.47-1.23.51-2.08.15-2.57-.37-.49-1.2-.78-2.5-.88v-.74c.64.02,1.17.05,1.6.07.43.02.93.04,1.49.04s1.07-.01,1.53-.04c.45-.02.88-.05,1.27-.07h0ZM239.21,48.53l-1.25,3.2c-.47,1.2-.99,2.06-1.58,2.57-.39.37-.86.62-1.4.75-.54.13-1.03.2-1.47.2-.47,0-.89-.09-1.27-.26-.38-.17-.68-.42-.9-.75-.22-.33-.33-.73-.33-1.2,0-.59.17-1.06.52-1.42.34-.36.82-.53,1.43-.53.52,0,.96.15,1.32.44.37.29.55.72.55,1.29,0,.42-.1.76-.29,1.03-.2.27-.43.48-.7.63.05.02.09.04.13.04h.09c.66,0,1.25-.23,1.77-.68.51-.45.97-1.18,1.36-2.19l1.32-3.42.7.29h0ZM261.43,28.89c.93,0,1.71.12,2.34.37.63.25,1.15.59,1.56,1.03.47.49.8,1.1.99,1.84.2.74.29,1.73.29,2.98v9.82c0,1.03.21,1.73.64,2.1.43.37,1.15.55,2.15.55v.77c-.42-.02-1.05-.05-1.91-.09-.86-.04-1.69-.06-2.5-.06s-1.6.02-2.37.06c-.77.04-1.35.07-1.75.09v-.77c.88,0,1.51-.18,1.88-.55.37-.37.55-1.07.55-2.1v-10.63c0-.76-.06-1.46-.18-2.1-.12-.64-.4-1.15-.83-1.54-.43-.39-1.09-.59-1.97-.59-1.54,0-2.79.64-3.73,1.93-.94,1.29-1.42,2.88-1.42,4.76v8.17c0,1.03.18,1.73.55,2.1.37.37.99.55,1.88.55v.77c-.39-.02-.97-.05-1.75-.09-.77-.04-1.56-.06-2.37-.06s-1.64.02-2.5.06c-.86.04-1.5.07-1.91.09v-.77c1.01,0,1.72-.18,2.15-.55.43-.37.64-1.07.64-2.1v-11.51c0-1.1-.2-1.92-.59-2.45-.39-.53-1.13-.79-2.21-.79v-.77c.78.07,1.54.11,2.28.11s1.39-.04,2.04-.13c.65-.09,1.24-.21,1.78-.39v4.34c.64-1.67,1.53-2.83,2.67-3.48,1.14-.65,2.34-.97,3.59-.97ZM275.96,48.6c-1.59,0-2.75-.4-3.48-1.2-.72-.8-1.09-1.86-1.09-3.18,0-1.03.25-1.88.75-2.56.5-.67,1.15-1.23,1.93-1.66.78-.43,1.61-.8,2.48-1.1.87-.31,1.7-.61,2.48-.9.78-.29,1.43-.63,1.93-.99.5-.37.75-.83.75-1.4v-2.28c0-1.03-.15-1.81-.46-2.35-.31-.54-.72-.9-1.23-1.09s-1.09-.28-1.73-.28-1.27.09-1.97.26c-.7.17-1.26.53-1.67,1.07.47.1.87.34,1.21.74.34.39.52.89.52,1.51s-.2,1.1-.59,1.45c-.39.36-.89.53-1.51.53-.71,0-1.23-.23-1.56-.68-.33-.45-.5-.96-.5-1.53,0-.64.16-1.15.48-1.54.32-.39.72-.76,1.21-1.1.56-.39,1.29-.73,2.19-1.01.89-.28,1.91-.42,3.03-.42,1.01,0,1.86.12,2.57.35.71.23,1.3.57,1.77,1.01.64.59,1.05,1.31,1.25,2.15.2.85.29,1.86.29,3.03v10.23c0,.59.09,1.02.26,1.31.17.28.47.42.88.42.34,0,.64-.07.9-.22.26-.15.51-.33.75-.55l.4.63c-.52.39-1.01.72-1.47.98-.47.26-1.09.39-1.88.39-1.28,0-2.12-.33-2.54-.99-.42-.66-.63-1.42-.63-2.28-.78,1.3-1.67,2.17-2.67,2.61-.99.44-2.03.66-3.11.66h0ZM277.58,47.13c.74,0,1.46-.21,2.17-.64.71-.43,1.37-1.15,1.99-2.15v-7.21c-.37.54-.94.97-1.71,1.29s-1.57.67-2.39,1.05c-.82.38-1.53.9-2.12,1.55-.59.65-.88,1.58-.88,2.78,0,1.13.28,1.97.85,2.52.56.55,1.26.83,2.1.83Z"/>
        <path class="cls-2" d="M123.38,60.53c.52.02,1.19.05,2.02.07.83.02,1.66.04,2.46.04,1.15,0,2.26-.01,3.31-.04,1.05-.02,1.8-.04,2.24-.04,2.57,0,4.51.54,5.81,1.62,1.3,1.08,1.95,2.46,1.95,4.16,0,.86-.18,1.7-.53,2.52-.36.82-.94,1.57-1.77,2.24-.82.67-1.92,1.22-3.29,1.64v.07c1.94.25,3.45.71,4.54,1.38,1.09.67,1.86,1.47,2.3,2.37s.66,1.86.66,2.87c0,2.08-.78,3.79-2.34,5.13-1.56,1.34-3.72,2-6.49,2-.54,0-1.35-.02-2.43-.05s-2.38-.06-3.9-.06c-.86,0-1.7,0-2.54.02-.83.01-1.51.04-2.02.09v-.74c.83-.05,1.47-.15,1.89-.29.43-.15.72-.44.86-.88.15-.44.22-1.1.22-1.99v-18.24c0-.91-.07-1.58-.22-2-.15-.43-.44-.72-.86-.88-.43-.16-1.06-.25-1.89-.28v-.74ZM132.51,61.27c-1.13,0-1.86.21-2.21.63-.34.42-.52,1.26-.52,2.54v18.24c0,1.28.18,2.1.53,2.48.36.38,1.1.57,2.23.57,2.4,0,4.15-.56,5.24-1.67,1.09-1.12,1.64-2.7,1.64-4.76,0-1.89-.51-3.35-1.53-4.38-1.02-1.03-2.69-1.54-5.02-1.54h-3.79v-.63h3.16c1.45,0,2.56-.28,3.35-.83.78-.55,1.32-1.29,1.62-2.21.29-.92.44-1.91.44-2.96,0-1.81-.4-3.18-1.2-4.1-.8-.92-2.11-1.38-3.95-1.38h0ZM150.75,86.83c-1.59,0-2.75-.4-3.48-1.2-.72-.8-1.09-1.86-1.09-3.18,0-1.03.25-1.88.75-2.56.5-.67,1.15-1.23,1.93-1.66.78-.43,1.61-.8,2.48-1.1.87-.31,1.7-.61,2.48-.9.78-.29,1.43-.63,1.93-.99.5-.37.75-.83.75-1.4v-2.28c0-1.03-.15-1.82-.46-2.35-.31-.54-.72-.9-1.23-1.08-.52-.18-1.09-.28-1.73-.28s-1.27.09-1.97.26c-.7.17-1.26.53-1.67,1.07.47.1.87.34,1.21.74.34.39.52.89.52,1.51s-.2,1.1-.59,1.45c-.39.36-.89.53-1.51.53-.71,0-1.23-.23-1.56-.68-.33-.45-.5-.96-.5-1.53,0-.64.16-1.15.48-1.54.32-.39.72-.76,1.21-1.1.56-.39,1.29-.73,2.19-1.01.89-.28,1.91-.42,3.03-.42,1.01,0,1.86.12,2.57.35.71.23,1.3.57,1.77,1.01.64.59,1.05,1.31,1.25,2.15.2.85.29,1.86.29,3.03v10.23c0,.59.09,1.02.26,1.31.17.28.47.42.88.42.34,0,.64-.07.9-.22.26-.15.51-.33.75-.55l.4.63c-.52.39-1.01.72-1.47.97-.47.26-1.09.39-1.88.39-1.28,0-2.12-.33-2.54-.99-.42-.66-.63-1.42-.63-2.28-.78,1.3-1.67,2.17-2.67,2.61-.99.44-2.03.66-3.11.66h0ZM152.37,85.36c.74,0,1.46-.21,2.17-.64.71-.43,1.37-1.15,1.99-2.15v-7.21c-.37.54-.94.97-1.71,1.29s-1.57.67-2.39,1.05-1.53.9-2.11,1.55c-.59.65-.88,1.58-.88,2.78,0,1.13.28,1.97.85,2.52.56.55,1.26.83,2.1.83h0ZM170.06,61.52v6.14h5.44v.74h-5.44v14.24c0,1.15.21,1.96.63,2.43s.99.7,1.73.7,1.37-.3,1.91-.9c.54-.6,1.01-1.61,1.4-3.03l.74.18c-.25,1.42-.73,2.62-1.45,3.6-.72.98-1.83,1.47-3.33,1.47-.83,0-1.52-.1-2.06-.31-.54-.21-1.02-.51-1.43-.9-.54-.56-.91-1.24-1.12-2.02-.21-.78-.31-1.83-.31-3.13v-12.32h-3.53v-.74h3.53v-5.63c.61-.02,1.2-.07,1.77-.15.56-.07,1.08-.2,1.54-.37h0ZM182.94,57.74v25.42c0,1.03.18,1.73.55,2.1.37.37.99.55,1.88.55v.77c-.39-.02-.97-.05-1.75-.09s-1.55-.06-2.34-.06c-.83,0-1.68.02-2.54.06-.86.04-1.5.07-1.91.09v-.77c1.01,0,1.72-.18,2.15-.55.43-.37.64-1.07.64-2.1v-21c0-1.1-.2-1.92-.59-2.45-.39-.53-1.13-.79-2.21-.79v-.77c.78.07,1.54.11,2.28.11s1.39-.04,2.04-.13c.65-.09,1.24-.21,1.78-.39h0ZM194.63,67.63v.74c-.61.05-1.19.21-1.73.5-.54.28-1.07.69-1.58,1.23l-5.19,5.44.51-1.03,6.84,9.38c.42.56.82,1.01,1.2,1.32.38.32.84.52,1.38.59v.77c-.27-.02-.69-.05-1.27-.09-.58-.04-1.15-.06-1.71-.06-.76,0-1.53.02-2.32.06-.78.04-1.37.07-1.77.09v-.77c.49,0,.83-.12,1.03-.37.2-.25.16-.54-.11-.88l-4.23-6.18c-.47-.66-.89-1.09-1.27-1.29-.38-.2-.93-.31-1.64-.33v-.74c.78-.1,1.42-.26,1.91-.5.49-.23.96-.58,1.4-1.05l2.72-2.83c.78-.81,1.18-1.45,1.18-1.93s-.25-.82-.75-1.03c-.5-.21-1.16-.31-1.97-.31v-.74c.64.02,1.35.06,2.15.09.8.04,1.47.05,2,.05.42,0,.82,0,1.21-.02.39-.01.76-.03,1.1-.05.34-.02.64-.05.88-.07ZM205.37,67.12c1.57,0,2.98.34,4.23,1.03,1.25.69,2.25,1.77,3,3.24.75,1.47,1.12,3.38,1.12,5.74s-.37,4.26-1.12,5.72c-.75,1.46-1.75,2.53-3,3.22-1.25.69-2.66,1.03-4.23,1.03s-2.95-.34-4.21-1.03c-1.26-.69-2.27-1.76-3.02-3.22-.75-1.46-1.12-3.37-1.12-5.72s.37-4.27,1.12-5.74c.75-1.47,1.75-2.55,3.02-3.24,1.26-.69,2.67-1.03,4.21-1.03ZM205.37,67.85c-1.4,0-2.54.72-3.44,2.17-.9,1.45-1.34,3.81-1.34,7.1s.45,5.65,1.34,7.08c.89,1.43,2.04,2.15,3.44,2.15s2.54-.72,3.44-2.15c.9-1.43,1.34-3.79,1.34-7.08s-.45-5.65-1.34-7.1c-.89-1.45-2.04-2.17-3.44-2.17ZM223.21,67.63v.77c-.61,0-1.15.04-1.62.13-.47.09-.77.34-.92.75-.15.42-.04,1.15.33,2.21l3.83,10.96-.26-.04,5.41-14.93.74.29-6.73,18.98h-.63l-6.03-16.29c-.39-.98-.78-1.57-1.16-1.77-.38-.2-.7-.29-.97-.29v-.77c.49.07,1,.13,1.53.17s1.1.06,1.71.06c.76,0,1.56-.02,2.41-.07.85-.05,1.64-.1,2.37-.15h0ZM243.41,67.63v.74c-.47.05-.9.25-1.31.61-.4.36-.77,1.01-1.09,1.97l-5.33,15.82h-.63l-5.92-15.04.85-4.23h.85l5.74,15.19-.29.22,3.64-11.07c.42-1.23.45-2.08.09-2.57-.36-.49-1.18-.78-2.48-.88v-.74c.44.02.82.04,1.14.06.32.01.63.02.94.04.31.01.64.02,1.01.02.56,0,1.07-.01,1.53-.04s.88-.05,1.27-.07h0ZM250.91,67.12c.98,0,1.82.16,2.5.48.69.32,1.19.61,1.51.88.81.66,1.3.22,1.47-1.32h.85c-.05.69-.09,1.5-.11,2.45-.02.94-.04,2.21-.04,3.81h-.85c-.15-.91-.4-1.79-.75-2.65-.36-.86-.88-1.56-1.56-2.12-.69-.55-1.58-.83-2.68-.83-.86,0-1.58.24-2.15.72s-.86,1.18-.86,2.12c0,.74.22,1.37.66,1.89s1.02,1.02,1.73,1.47c.71.45,1.48.95,2.32,1.49,1.4.91,2.59,1.83,3.57,2.76.98.93,1.47,2.16,1.47,3.68,0,1.13-.29,2.07-.88,2.83-.59.76-1.36,1.34-2.3,1.73-.94.39-1.98.59-3.11.59-.54,0-1.05-.04-1.53-.13-.48-.09-.94-.21-1.38-.39-.25-.12-.5-.27-.75-.44-.26-.17-.51-.36-.75-.55-.25-.2-.47-.19-.66.02-.2.21-.34.62-.44,1.23h-.85c.05-.78.09-1.74.11-2.87.02-1.13.04-2.62.04-4.49h.85c.17,1.37.42,2.57.74,3.6.32,1.03.82,1.83,1.51,2.41s1.64.86,2.87.86c.74,0,1.46-.26,2.19-.77.72-.51,1.08-1.42,1.08-2.72,0-1.08-.39-1.96-1.18-2.65-.78-.69-1.78-1.41-2.98-2.17-.88-.56-1.71-1.13-2.48-1.69-.77-.56-1.4-1.2-1.88-1.91-.48-.71-.72-1.57-.72-2.58,0-1.1.25-2,.75-2.7.5-.7,1.17-1.21,2-1.54.83-.33,1.73-.5,2.68-.5h0ZM266.54,57.74v25.42c0,1.03.18,1.73.55,2.1.37.37.99.55,1.88.55v.77c-.39-.02-.98-.05-1.75-.09s-1.55-.06-2.34-.06c-.83,0-1.68.02-2.54.06-.86.04-1.5.07-1.91.09v-.77c1.01,0,1.72-.18,2.15-.55.43-.37.64-1.07.64-2.1v-21c0-1.1-.2-1.92-.59-2.45-.39-.53-1.13-.79-2.21-.79v-.77c.78.07,1.54.11,2.28.11s1.39-.04,2.04-.13c.65-.09,1.24-.21,1.78-.39h0ZM278.24,67.63v.74c-.61.05-1.19.21-1.73.5s-1.07.69-1.58,1.23l-5.19,5.44.52-1.03,6.84,9.38c.42.56.82,1.01,1.2,1.32.38.32.84.52,1.38.59v.77c-.27-.02-.69-.05-1.27-.09s-1.15-.06-1.71-.06c-.76,0-1.53.02-2.32.06-.78.04-1.37.07-1.77.09v-.77c.49,0,.83-.12,1.03-.37.2-.25.16-.54-.11-.88l-4.23-6.18c-.47-.66-.89-1.09-1.27-1.29-.38-.2-.93-.31-1.64-.33v-.74c.78-.1,1.42-.26,1.91-.5.49-.23.96-.58,1.4-1.05l2.72-2.83c.78-.81,1.18-1.45,1.18-1.93s-.25-.82-.75-1.03c-.5-.21-1.16-.31-1.97-.31v-.74c.64.02,1.35.06,2.15.09.8.04,1.47.05,2,.05.42,0,.82,0,1.21-.02.39-.01.76-.03,1.1-.05.34-.02.64-.05.88-.07ZM285.56,86.83c-1.59,0-2.75-.4-3.48-1.2-.72-.8-1.09-1.86-1.09-3.18,0-1.03.25-1.88.75-2.56.5-.67,1.15-1.23,1.93-1.66.78-.43,1.61-.8,2.48-1.1.87-.31,1.7-.61,2.48-.9.78-.29,1.43-.63,1.93-.99.5-.37.75-.83.75-1.4v-2.28c0-1.03-.15-1.82-.46-2.35-.31-.54-.72-.9-1.23-1.08-.52-.18-1.09-.28-1.73-.28s-1.27.09-1.97.26c-.7.17-1.26.53-1.67,1.07.47.1.87.34,1.21.74.34.39.52.89.52,1.51s-.2,1.1-.59,1.45c-.39.36-.89.53-1.51.53-.71,0-1.23-.23-1.56-.68-.33-.45-.5-.96-.5-1.53,0-.64.16-1.15.48-1.54.32-.39.72-.76,1.21-1.1.56-.39,1.29-.73,2.19-1.01.89-.28,1.91-.42,3.03-.42,1.01,0,1.86.12,2.57.35s1.3.57,1.77,1.01c.64.59,1.05,1.31,1.25,2.15.2.85.29,1.86.29,3.03v10.23c0,.59.09,1.02.26,1.31.17.28.47.42.88.42.34,0,.64-.07.9-.22.26-.15.51-.33.75-.55l.4.63c-.52.39-1.01.72-1.47.97-.47.26-1.09.39-1.88.39-1.28,0-2.12-.33-2.54-.99s-.63-1.42-.63-2.28c-.78,1.3-1.67,2.17-2.67,2.61-.99.44-2.03.66-3.11.66h0ZM287.18,85.36c.74,0,1.46-.21,2.17-.64.71-.43,1.37-1.15,1.99-2.15v-7.21c-.37.54-.94.97-1.71,1.29s-1.57.67-2.39,1.05c-.82.38-1.53.9-2.12,1.55-.59.65-.88,1.58-.88,2.78,0,1.13.28,1.97.85,2.52.56.55,1.26.83,2.1.83Z"/>
        <path class="cls-1" d="M49.7,75.93h-.17c-5.9.04-10.92.99-15.08,2.46-4.9,1.74-8.58,4.2-11.07,6.75-.64.65-1.19,1.31-1.67,1.97-.49.66-.89,1.33-1.21,1.97-.3.6-.52,1.17-.67,1.71-.14.53-.21,1.03-.21,1.46,0,.38.06.72.17,1.02.1.26.24.49.42.67.45.44,1.28.55,2.5.36,1.48-.23,3.41-.93,5.77-2.06,2.5-1.2,5.43-2.89,8.81-5.05,3.39-2.18,7.22-4.82,11.47-7.93l.95-.69.94.69c4.25,3.1,8.07,5.75,11.47,7.93,3.37,2.16,6.31,3.85,8.81,5.05,2.36,1.14,4.28,1.83,5.77,2.06,1.22.19,2.05.08,2.5-.36.18-.18.33-.41.42-.67.11-.3.17-.64.17-1.02,0-.44-.07-.93-.21-1.46-.15-.54-.37-1.11-.67-1.71-.32-.65-.72-1.31-1.21-1.97-.48-.66-1.04-1.32-1.67-1.97-2.49-2.55-6.17-5.02-11.07-6.75-4.16-1.47-9.18-2.42-15.08-2.46,0,0-.17,0-.17,0ZM49.52,73.65h.36c6.19.04,11.46,1.03,15.83,2.58,5.26,1.86,9.24,4.54,11.95,7.32.72.74,1.34,1.48,1.88,2.21.57.78,1.04,1.55,1.42,2.3.37.73.64,1.45.83,2.14.19.72.29,1.41.28,2.06,0,.66-.11,1.27-.32,1.82-.22.57-.54,1.08-.97,1.5-1,.97-2.48,1.29-4.45.98-1.7-.27-3.84-1.03-6.4-2.26-2.59-1.25-5.61-2.98-9.06-5.19-3.32-2.13-7.05-4.7-11.18-7.71-4.13,3.01-7.86,5.58-11.18,7.71-3.45,2.21-6.47,3.94-9.05,5.19-2.56,1.23-4.7,1.99-6.4,2.26-1.97.31-3.46,0-4.45-.98-.43-.42-.76-.93-.97-1.5-.21-.55-.31-1.16-.32-1.82,0-.65.09-1.35.28-2.06.19-.69.46-1.41.83-2.14.37-.75.85-1.52,1.42-2.3.54-.73,1.16-1.48,1.88-2.21,2.71-2.78,6.69-5.45,11.95-7.32,4.37-1.55,9.65-2.55,15.83-2.58ZM49.88,42.79c1.82,0,3.56.37,5.16,1.03,1.66.69,3.15,1.69,4.39,2.93,2.44,2.44,3.95,5.82,3.95,9.55,0,1.82-.37,3.56-1.03,5.16-.69,1.66-1.69,3.15-2.93,4.39-2.44,2.44-5.82,3.95-9.55,3.95-1.82,0-3.56-.36-5.16-1.03-1.66-.69-3.15-1.69-4.39-2.93-2.44-2.44-3.95-5.82-3.95-9.55,0-1.82.37-3.56,1.03-5.16.69-1.66,1.69-3.15,2.93-4.39,2.44-2.44,5.82-3.95,9.55-3.95ZM54.17,45.93c-1.31-.54-2.76-.85-4.29-.85-3.09,0-5.9,1.26-7.92,3.28-1.04,1.04-1.87,2.27-2.44,3.63-.55,1.32-.85,2.76-.85,4.29,0,3.09,1.25,5.9,3.28,7.92,1.04,1.04,2.27,1.87,3.63,2.44,1.31.54,2.76.85,4.29.85,3.09,0,5.9-1.25,7.92-3.28,1.04-1.04,1.87-2.27,2.44-3.63.55-1.31.85-2.76.85-4.29,0-3.09-1.25-5.9-3.28-7.92-1.04-1.04-2.27-1.87-3.63-2.44ZM76.87,12.93c-2.27,1.98-4.59,5.67-6.55,11.56-1.54,4.63-2.84,10.6-3.69,18.12,5.36-3.29,9.32-6.79,12.16-10.23,3.77-4.58,5.52-9.04,5.88-12.73.18-1.78.03-3.36-.36-4.67-.39-1.3-1.02-2.31-1.8-2.95-.7-.57-1.56-.83-2.5-.7-.96.13-2.02.64-3.13,1.6ZM68.15,23.78c2.1-6.33,4.67-10.35,7.21-12.57,1.47-1.28,2.95-1.97,4.34-2.15,1.59-.21,3.04.23,4.23,1.19,1.15.93,2.04,2.33,2.57,4.08.47,1.58.65,3.46.44,5.55-.41,4.09-2.31,8.99-6.39,13.96-3.33,4.05-8.11,8.15-14.73,11.92l-1.92,1.09.21-2.19c.85-8.77,2.29-15.63,4.03-20.87ZM33.13,42.61c-.85-7.52-2.15-13.48-3.69-18.12-1.96-5.9-4.29-9.59-6.55-11.56-1.11-.97-2.17-1.48-3.13-1.6-.94-.12-1.8.14-2.5.7-.79.63-1.41,1.65-1.8,2.95-.39,1.31-.54,2.9-.36,4.67.37,3.69,2.12,8.15,5.88,12.73,2.83,3.44,6.79,6.94,12.16,10.23ZM31.61,23.78c1.74,5.24,3.18,12.1,4.03,20.87l.21,2.19-1.92-1.09c-6.62-3.76-11.4-7.87-14.73-11.92-4.08-4.97-5.99-9.86-6.39-13.96-.21-2.09-.03-3.97.44-5.55.52-1.75,1.42-3.15,2.57-4.07,1.19-.96,2.64-1.4,4.23-1.19,1.39.18,2.87.87,4.34,2.15,2.54,2.22,5.11,6.24,7.21,12.57ZM52.72,38.89c-1.5-8.67-1.93-15.67-1.64-21.19.35-6.66,1.76-11.22,3.63-14.03,1.08-1.62,2.32-2.68,3.62-3.22,1.48-.62,3-.58,4.4.03,1.35.59,2.58,1.7,3.55,3.25.88,1.4,1.55,3.17,1.9,5.23.69,4.05.15,9.28-2.47,15.15-2.14,4.79-5.66,10.02-11.04,15.4l-1.56,1.56s-.38-2.18-.38-2.18ZM53.36,17.82c-.26,4.87.07,10.97,1.24,18.44,4.3-4.6,7.19-9.02,9.01-13.08,2.42-5.41,2.92-10.18,2.3-13.84-.3-1.77-.86-3.26-1.58-4.41-.72-1.15-1.6-1.96-2.53-2.36-.83-.36-1.72-.38-2.59-.02-.89.37-1.78,1.15-2.6,2.38-1.66,2.5-2.92,6.68-3.25,12.88ZM45.16,36.26c1.17-7.47,1.5-13.57,1.24-18.44-.33-6.21-1.59-10.38-3.25-12.88-.82-1.23-1.71-2.01-2.6-2.38-.87-.37-1.77-.34-2.59.02-.93.41-1.81,1.21-2.53,2.36-.72,1.15-1.28,2.64-1.58,4.41-.62,3.66-.12,8.42,2.3,13.83,1.82,4.06,4.71,8.49,9.01,13.08ZM48.68,17.7c.29,5.52-.14,12.51-1.64,21.18l-.38,2.18-1.56-1.56c-5.38-5.38-8.91-10.61-11.04-15.4-2.62-5.87-3.16-11.1-2.47-15.15.35-2.06,1.02-3.83,1.9-5.23.97-1.55,2.2-2.66,3.55-3.25,1.4-.61,2.92-.65,4.4-.03,1.29.54,2.54,1.6,3.62,3.22,1.86,2.81,3.28,7.38,3.63,14.03ZM90.33,57.59c-3-.23-7.26.7-12.84,3.44-4.37,2.15-9.53,5.4-15.49,10.07,6.11,1.51,11.38,1.88,15.82,1.49,5.9-.53,10.31-2.41,13.2-4.73,1.39-1.12,2.42-2.33,3.07-3.53.65-1.19.93-2.35.84-3.36-.09-.89-.5-1.68-1.25-2.27-.76-.59-1.87-.99-3.34-1.1ZM76.48,58.98c5.98-2.94,10.66-3.93,14.01-3.67,1.94.15,3.47.72,4.58,1.59,1.27.99,1.97,2.33,2.12,3.85.14,1.46-.23,3.08-1.1,4.68-.79,1.45-2.01,2.9-3.65,4.21-3.2,2.58-8.03,4.66-14.44,5.23-5.22.47-11.5-.07-18.82-2.14l-2.13-.6,1.72-1.39c6.84-5.53,12.74-9.32,17.71-11.75ZM37.76,71.1c-5.96-4.67-11.12-7.93-15.49-10.07-5.58-2.74-9.84-3.67-12.84-3.44-1.47.11-2.58.51-3.34,1.1-.75.58-1.16,1.37-1.25,2.27-.1,1.01.18,2.17.84,3.36.66,1.2,1.68,2.41,3.07,3.53,2.89,2.33,7.3,4.21,13.2,4.73,4.44.4,9.71.03,15.82-1.49ZM23.28,58.98c4.97,2.44,10.87,6.22,17.71,11.75l1.72,1.39-2.13.6c-7.32,2.08-13.6,2.61-18.82,2.14-6.41-.57-11.23-2.65-14.44-5.23-1.64-1.32-2.85-2.77-3.65-4.21-.88-1.6-1.25-3.22-1.1-4.68.15-1.52.85-2.87,2.12-3.85,1.11-.87,2.64-1.44,4.58-1.59,3.36-.26,8.03.73,14.01,3.67ZM8.87,30.49c3.24.92,7.28,3.48,11.87,8.3,3.81,4,8.02,9.6,12.53,17.17l1.13,1.9-2.2-.17c-7.59-.59-13.67-2.27-18.4-4.52-5.81-2.76-9.61-6.38-11.72-9.91-1.08-1.8-1.72-3.59-1.96-5.22-.27-1.8-.05-3.45.59-4.77.67-1.37,1.8-2.39,3.33-2.88,1.34-.43,2.97-.44,4.84.1ZM19.08,40.37c-4.28-4.5-7.95-6.86-10.84-7.68-1.42-.41-2.6-.42-3.52-.12-.9.29-1.56.89-1.96,1.7-.44.91-.58,2.1-.38,3.44.2,1.35.74,2.84,1.66,4.37,1.9,3.18,5.38,6.47,10.74,9.02,4.03,1.91,9.1,3.4,15.35,4.09-3.97-6.44-7.68-11.28-11.04-14.82ZM91.52,32.69c-2.89.82-6.56,3.18-10.84,7.68-3.36,3.54-7.07,8.38-11.04,14.82,6.25-.7,11.32-2.18,15.35-4.09,5.36-2.54,8.83-5.83,10.74-9.02.91-1.53,1.46-3.02,1.66-4.37.2-1.35.06-2.53-.38-3.44-.39-.81-1.06-1.41-1.96-1.7-.92-.29-2.1-.28-3.52.12ZM79.02,38.79c4.59-4.83,8.63-7.38,11.87-8.3,1.87-.53,3.5-.52,4.84-.1,1.53.49,2.66,1.5,3.33,2.88.64,1.32.86,2.97.59,4.77-.24,1.63-.88,3.41-1.96,5.22-2.11,3.53-5.92,7.16-11.72,9.91-4.73,2.25-10.81,3.93-18.4,4.52l-2.2.17,1.13-1.9c4.5-7.57,8.72-13.17,12.53-17.17Z"/>
      </g>
    </g>
  </g>
</svg>